{
    "asset" : {
        "generator" : "Khronos glTF Blender I/O v1.8.19",
        "version" : "2.0"
    },
    "scene" : 0,
    "scenes" : [
        {
            "name" : "Scene",
            "nodes" : [
                0
            ]
        }
    ],
    "nodes" : [
        {
            "mesh" : 0,
            "name" : "Cube"
        }
    ],
    "meshes" : [
        {
            "name" : "Cube",
            "primitives" : [
                {
                    "attributes" : {
                        "POSITION" : 0,
                        "NORMAL" : 1
                    },
                    "indices" : 2
                }
            ]
        }
    ],
    "accessors" : [
        {
            "bufferView" : 0,
            "componentType" : 5126,
            "count" : 24578,
            "max" : [
                1.000000238418579,
                1.000000238418579,
                1.000000238418579
            ],
            "min" : [
                -1.000000238418579,
                -1.000000238418579,
                -1.000000238418579
            ],
            "type" : "VEC3"
        },
        {
            "bufferView" : 1,
            "componentType" : 5126,
            "count" : 24578,
            "type" : "VEC3"
        },
        {
            "bufferView" : 2,
            "componentType" : 5123,
            "count" : 147456,
            "type" : "SCALAR"
        }
    ],
    "bufferViews" : [
        {
            "buffer" : 0,
            "byteLength" : 294936,
            "byteOffset" : 0
        },
        {
            "buffer" : 0,
            "byteLength" : 294936,
            "byteOffset" : 294936
        },
        {
            "buffer" : 0,
            "byteLength" : 294912,
            "byteOffset" : 589872
        }
    ],
    "buffers" : [
        {
            "byteLength" : 884784,
            "uri" : "cube.bin"
        }
    ]
}
