{
	"asset":{
		"generator":"Khronos glTF Blender I/O v3.6.27",
		"version":"2.0"
	},
	"scene":0,
	"scenes":[
		{
			"name":"Scene",
			"nodes":[
				0
			]
		}
	],
	"nodes":[
		{
			"mesh":0,
			"name":"Plane",
			"translation":[
				0,
				0.1490543782711029,
				0
			]
		}
	],
	"meshes":[
		{
			"name":"Plane.001",
			"primitives":[
				{
					"attributes":{
						"POSITION":0,
						"NORMAL":1
					},
					"indices":2
				}
			]
		}
	],
	"accessors":[
		{
			"bufferView":0,
			"componentType":5126,
			"count":201,
			"max":[
				5,
				1.90883207321167,
				5
			],
			"min":[
				-5,
				-0.9088320732116699,
				-5
			],
			"type":"VEC3"
		},
		{
			"bufferView":1,
			"componentType":5126,
			"count":201,
			"type":"VEC3"
		},
		{
			"bufferView":2,
			"componentType":5123,
			"count":396,
			"type":"SCALAR"
		}
	],
	"bufferViews":[
		{
			"buffer":0,
			"byteLength":2412,
			"byteOffset":0,
			"target":34962
		},
		{
			"buffer":0,
			"byteLength":2412,
			"byteOffset":2412,
			"target":34962
		},
		{
			"buffer":0,
			"byteLength":792,
			"byteOffset":4824,
			"target":34963
		}
	],
	"buffers":[
		{
			"byteLength":5616,
			"uri":"ico_plane.bin"
		}
	]
}
